<?xml version="1.0" standalone="no"?><!DOCTYPE svg PUBLIC "-//W3C//DTD SVG 1.1//EN" "http://www.w3.org/Graphics/SVG/1.1/DTD/svg11.dtd"><svg t="1584712046188" class="icon" viewBox="0 0 1024 1024" version="1.1" xmlns="http://www.w3.org/2000/svg" p-id="11796" xmlns:xlink="http://www.w3.org/1999/xlink" width="200" height="200"><defs><style type="text/css"></style></defs><path d="M799.695238 563.2c-14.628571 0-24.380952 12.190476-24.380952 24.380952l2.438095 158.476191c0 12.190476 12.190476 24.380952 24.380952 24.380952 14.628571 0 24.380952-12.190476 24.380953-24.380952V585.142857c-2.438095-12.190476-12.190476-21.942857-26.819048-21.942857z" p-id="11797"></path><path d="M994.742857 799.695238H334.019048c-14.628571 0-24.380952 9.752381-24.380953 24.380952 0 51.2-41.447619 148.72381-143.847619 148.72381C48.761905 972.8 48.761905 819.2 48.761905 816.761905V102.4c0-29.257143 21.942857-51.2 48.761905-51.2h629.028571c24.380952 0 46.32381 21.942857 46.323809 46.32381v68.266666c0 14.628571 9.752381 24.380952 24.380953 24.380953s24.380952-12.190476 24.380952-24.380953V97.52381c0-51.2-41.447619-95.085714-95.085714-95.085715H97.52381C43.885714 2.438095 0 46.32381 0 102.4v716.8C0 902.095238 43.885714 1024 165.790476 1024c112.152381 0 177.980952-95.085714 190.171429-173.104762h611.961905c-9.752381 43.885714-39.009524 124.342857-141.409524 124.342857H358.4c-14.628571 0-24.380952 9.752381-24.380952 24.380953s9.752381 24.380952 24.380952 24.380952h465.67619c146.285714 0 190.171429-129.219048 195.04762-197.485714 0-7.314286-2.438095-12.190476-7.314286-17.066667s-9.752381-9.752381-17.066667-9.752381z" p-id="11798"></path><path d="M677.790476 241.371429c4.87619-7.314286 7.314286-19.504762 0-26.819048-4.87619-7.314286-17.066667-12.190476-26.819047-9.752381-7.314286 2.438095-126.780952 34.133333-180.419048 117.028571v-9.752381c0-9.752381-4.87619-19.504762-14.628571-21.942857-9.752381-4.87619-19.504762-2.438095-26.819048 4.876191-4.87619 4.87619-131.657143 129.219048-87.771429 273.066666-14.628571 14.628571-41.447619 43.885714-53.638095 87.771429-4.87619 12.190476 2.438095 26.819048 14.628572 31.695238 2.438095 0 4.87619 2.438095 7.314285 2.438095 9.752381 0 19.504762-7.314286 21.942857-17.066666 9.752381-26.819048 24.380952-46.32381 34.133334-60.952381 29.257143 19.504762 112.152381 58.514286 243.809524 9.752381 9.752381-2.438095 14.628571-12.190476 14.628571-21.942857 0-7.314286-2.438095-17.066667-9.752381-19.504762 46.32381 4.87619 107.27619 0 153.6-43.885715 14.628571-12.190476 26.819048-26.819048 41.447619-39.009523 68.266667-68.266667 114.590476-109.714286 177.980952-87.771429 7.314286 2.438095 17.066667 0 21.942858-4.87619 7.314286-4.87619 9.752381-14.628571 9.752381-21.942858-7.314286-65.828571-48.761905-119.466667-112.152381-143.847619-73.142857-29.257143-160.914286-17.066667-248.685715 34.133334 12.190476-19.504762 19.504762-31.695238 19.504762-31.695238z m214.552381 39.009523c34.133333 14.628571 60.952381 39.009524 73.142857 70.704762-75.580952-2.438095-131.657143 53.638095-187.733333 107.276191l-39.009524 39.009524c-68.266667 63.390476-182.857143 14.628571-185.295238 14.628571-9.752381-4.87619-19.504762-2.438095-26.819048 4.87619-7.314286 7.314286-9.752381 17.066667-4.87619 26.819048 0 2.438095 9.752381 21.942857 29.257143 43.885714-90.209524 21.942857-141.409524-7.314286-158.476191-19.504762v-2.438095c-29.257143-78.019048 7.314286-153.6 36.571429-197.485714 4.87619 17.066667 9.752381 36.571429 19.504762 58.514286 4.87619 12.190476 17.066667 17.066667 29.257143 14.628571 12.190476-2.438095 19.504762-14.628571 19.504762-26.819048-7.314286-70.704762 51.2-114.590476 99.961904-141.409523-9.752381 19.504762-21.942857 39.009524-34.133333 63.390476-4.87619 9.752381-2.438095 21.942857 7.314286 29.257143 9.752381 7.314286 21.942857 7.314286 31.695238 0 102.4-82.895238 209.67619-114.590476 290.133333-85.333334z" p-id="11799"></path></svg>